<svg xmlns="http://www.w3.org/2000/svg" viewBox="0 0 134.58 136.92"><defs><style>.cls-1{fill:#003057;}</style></defs><g id="Layer_1" data-name="Layer 1"><g id="Environmentally_Responsible_Practices" data-name="Environmentally Responsible Practices"><g id="Group_380" data-name="Group 380"><path id="Path_259" data-name="Path 259" class="cls-1" d="M100.53,107.12a5.6,5.6,0,0,1-3.79-1.46,8.75,8.75,0,0,0-11.44,0,5.67,5.67,0,0,1-7.58,0,8.75,8.75,0,0,0-11.45,0,5.66,5.66,0,0,1-7.57,0,8.75,8.75,0,0,0-11.45,0,5.67,5.67,0,0,1-7.57,0A8.54,8.54,0,0,0,34,103.55l-.2,0v3.08H34a5.63,5.63,0,0,1,3.79,1.46,8.75,8.75,0,0,0,11.45,0,5.69,5.69,0,0,1,7.58,0,8.73,8.73,0,0,0,11.44,0,5.69,5.69,0,0,1,7.58,0,8.73,8.73,0,0,0,11.44,0,5.69,5.69,0,0,1,7.58,0,8.72,8.72,0,0,0,5.72,2.13l.21,0v-3.08l-.21,0Z"/><path id="Path_260" data-name="Path 260" class="cls-1" d="M100.53,96.71a5.5,5.5,0,0,1-3.79-1.45,8.73,8.73,0,0,0-11.44,0,5.67,5.67,0,0,1-7.58,0,8.75,8.75,0,0,0-11.45,0,5.66,5.66,0,0,1-7.57,0,8.75,8.75,0,0,0-11.45,0,5.67,5.67,0,0,1-7.57,0,8.54,8.54,0,0,0-5.63-2.13l-.3,0v3.08l.21,0a5.69,5.69,0,0,1,3.79,1.45,8.73,8.73,0,0,0,11.44,0,5.69,5.69,0,0,1,7.58,0,8.72,8.72,0,0,0,11.44,0,5.69,5.69,0,0,1,7.58,0,8.75,8.75,0,0,0,11.45,0,5.67,5.67,0,0,1,7.57,0,8.53,8.53,0,0,0,5.64,2.12,1.53,1.53,0,0,0,.3,0V96.73l-.21,0Z"/><path id="Path_261" data-name="Path 261" class="cls-1" d="M100.8,72.64l0-2.85c-.1,0-10.73.87-14-7.38v-6.7a13.58,13.58,0,0,0,5.91,3.43,19.18,19.18,0,0,0,6,.77l.45,0L99,57l-.44,0c-.09,0-9,.5-11.7-6.46v-4.8a14.42,14.42,0,0,0,9.06,3.31h.44s0-.27,0-1.43c0-.45,0-1.39,0-1.39l-.43,0c-.28,0-6.94-.06-9.06-5.36V34a12.56,12.56,0,0,0,6,2.46h.57l.14-2.8-.41,0c-.05,0-4.45-.52-6.1-3.79-.14-.26-.29-.52-.45-.76l-1.25-2.27L83.9,29.76l-.06.09c-1.65,3.26-6.06,3.79-6.1,3.8l-.41,0,.15,2.8H78A12.66,12.66,0,0,0,84,34v6.86c-2.12,5.3-8.78,5.36-9.07,5.36H74.5V49.1H75A14.54,14.54,0,0,0,84,45.79v4.8c-2.71,6.89-11.33,6.48-11.7,6.46l-.46,0-.1,2.9h.46a23,23,0,0,0,5.89-.78A13.68,13.68,0,0,0,84,55.71v6.7c-3.22,8.25-13.52,7.42-14,7.38l0,2.86s.26,0,1,0c2.62,0,8.9-.51,13-5V85.27H52.3V77.85A17.18,17.18,0,0,0,68.14,60.93c0-5.56-3.67-11.53-6.63-16.35-.62-1-1.2-2-1.64-2.71l-6-10.34c-.23-.41-1.26-2.1-1.8-3L51,26.66l-1.27,2.13c-.58,1-1.49,2.5-1.63,2.75l-6,10.32c-.34.6-.85,1.42-1.39,2.31l-.25.41c-2.9,4.71-6.5,10.56-6.63,16.06v.3A17.24,17.24,0,0,0,49.65,77.85v7.42H33.75V88h67V85.27H86.87V67.71c5.28,5.69,13.82,4.93,13.93,4.93M52.3,75.21V70.93a22.18,22.18,0,0,1,12.85-12.8,13.06,13.06,0,0,1,.34,2.79A14.53,14.53,0,0,1,52.3,75.21M64.37,55.6A24.79,24.79,0,0,0,52.3,65.18V56.61A12.78,12.78,0,0,1,61,48.87a44,44,0,0,1,3.36,6.73M57.58,43.2c.45.76,1,1.73,1.69,2.8l.34.55a15.45,15.45,0,0,0-7.31,4.91V34ZM43,45.56c.56-.92,1.08-1.76,1.43-2.37l5.27-9.13v17.4a15.46,15.46,0,0,0-7.3-4.92c.12-.19.24-.38.35-.57Zm-2,3.3a12.82,12.82,0,0,1,8.7,7.75v8.57A24.79,24.79,0,0,0,37.58,55.6,44.63,44.63,0,0,1,41,48.86M36.46,60.93v-.26a12.74,12.74,0,0,1,.35-2.54,22.17,22.17,0,0,1,12.84,12.8V75.2A14.59,14.59,0,0,1,36.46,60.93"/></g></g></g></svg>