<svg xmlns="http://www.w3.org/2000/svg" viewBox="0 0 134.58 136.92"><defs><style>.cls-1{fill:#003057;}</style></defs><g id="More_Efficient_Processes" data-name="More Efficient Processes"><g id="Group_305" data-name="Group 305"><path id="Path_206" data-name="Path 206" class="cls-1" d="M107,61H95.33V39.65h-16V61H67.88l2.25,2.45,16.21,16c.28.28,1,.95,1,.95s.73-.67,1-.94l16.22-16ZM92.44,63.87h7.63L87.35,76.41,74.63,63.87h7.52l0-1.43V42.51H92.46V62.44Z"/><path id="Path_207" data-name="Path 207" class="cls-1" d="M64.24,56,48,40c-.27-.27-1-.95-1-.95L46,40,29.8,56l-2.25,2.46H39V79.83H55V58.47H66.7ZM52.13,57V77H41.85V57l0-1.43H34.3L47,43.07,59.74,55.6H52.1Z"/><path id="Path_208" data-name="Path 208" class="cls-1" d="M100.88,103.59h0a5.59,5.59,0,0,1-3.79-1.45,8.73,8.73,0,0,0-11.44,0,5.69,5.69,0,0,1-7.58,0,8.75,8.75,0,0,0-11.45,0,5.69,5.69,0,0,1-7.58,0,8.73,8.73,0,0,0-11.44,0,5.67,5.67,0,0,1-7.57,0A8.55,8.55,0,0,0,34.3,100l-.2,0v3.08a.75.75,0,0,0,.21,0,5.65,5.65,0,0,1,3.78,1.45,8.75,8.75,0,0,0,11.45,0,5.67,5.67,0,0,1,7.57,0,8.75,8.75,0,0,0,11.45,0,5.7,5.7,0,0,1,7.58,0,8.73,8.73,0,0,0,11.44,0,5.71,5.71,0,0,1,7.58,0,8.72,8.72,0,0,0,5.72,2.13l.21,0v-3.08l-.21,0"/><path id="Path_209" data-name="Path 209" class="cls-1" d="M34.31,92.74a5.59,5.59,0,0,1,3.78,1.45,8.75,8.75,0,0,0,11.45,0,5.7,5.7,0,0,1,7.58,0,8.72,8.72,0,0,0,11.44,0,5.7,5.7,0,0,1,7.58,0,8.73,8.73,0,0,0,11.44,0,5.71,5.71,0,0,1,7.58,0,8.52,8.52,0,0,0,5.63,2.13,1.53,1.53,0,0,0,.3,0V93.2h-.21a5.56,5.56,0,0,1-3.79-1.46,8.73,8.73,0,0,0-11.44,0,5.67,5.67,0,0,1-7.58,0,8.75,8.75,0,0,0-11.45,0,5.66,5.66,0,0,1-7.57,0,8.75,8.75,0,0,0-11.45,0,5.67,5.67,0,0,1-7.57,0,8.53,8.53,0,0,0-5.63-2.12,1.51,1.51,0,0,0-.3,0v3.08l.21,0"/></g></g></svg>