<svg id="Converting_Environmental_Liabilities_into_Assets" data-name="Converting Environmental Liabilities into Assets" xmlns="http://www.w3.org/2000/svg" viewBox="0 0 134.58 136.92"><defs><style>.cls-1{fill:#003057;}</style></defs><g id="Converting_Environmental_Liabilities_into_Assets-2" data-name="Converting Environmental Liabilities into Assets"><g id="Group_306" data-name="Group 306"><path id="Path_210" data-name="Path 210" class="cls-1" d="M60.05,37,58,39l1.44,1,1.34.92,5.71-6.18-6.52-5.7-2.1,2.43,2.52,2.07a37.61,37.61,0,0,0-21.5,11.7,37.2,37.2,0,0,0-9.7,23.4,1.68,1.68,0,0,0,1.6,1.7,1.56,1.56,0,0,0,1.6-1.5A34,34,0,0,1,60.05,37"/><path id="Path_211" data-name="Path 211" class="cls-1" d="M84.25,101.48a1.6,1.6,0,0,0-2.1-.6,34,34,0,0,1-41.6-8l2.79.54L43.9,90l-8.35-1.55-1.7,8.26,3.39.41.51-3a37.35,37.35,0,0,0,46,9.5,1.58,1.58,0,0,0,.52-2.18l0,0"/><path id="Path_212" data-name="Path 212" class="cls-1" d="M104.47,82.46l-3,1.12a36.73,36.73,0,0,0,.6-24.5,37.57,37.57,0,0,0-15.5-20,1.57,1.57,0,0,0-2.18.47h0l0,0a1.59,1.59,0,0,0,.5,2.1,34.08,34.08,0,0,1,13.8,40.1l-.83-2.52-1.51.48-1.55.53,2.69,8.21,8-3Z"/><path id="Path_213" data-name="Path 213" class="cls-1" d="M60.55,64.48v-.09c0-1.77-1.14-3.57-2-5l-.48-.8-1.78-3.07C56.12,55.27,55,53.2,55,53.2s-.87,1.59-1.27,2.29l-1.78,3.09-.48.8c-.91,1.48-2.05,3.32-2.05,5.1a5.58,5.58,0,0,0,11.15,0h0m-3.71,1.87-.08.08a2.63,2.63,0,0,1-4.42-1.94c0-1,.93-2.47,1.61-3.57.18-.29.34-.56.54-.91l.49-.84.5.88c.18.31.35.58.52.86.68,1.1,1.61,2.62,1.61,3.58a2.67,2.67,0,0,1-.77,1.86"/><path id="Path_214" data-name="Path 214" class="cls-1" d="M84.18,58.9c0-2.34-1.53-4.83-2.76-6.83L80.74,51l-2.48-4.29c-.13-.23-1.26-2-1.26-2s-.87,1.29-1.28,2L73.25,51l-.61,1-.06.1c-1.24,2-2.77,4.5-2.77,6.82A7.2,7.2,0,0,0,77,66.08a7,7,0,0,0,7.19-6.84V58.9Zm-8.37-6.52L77,50.32l1.21,2.1c.22.39.44.75.71,1.19,1,1.6,2.33,3.78,2.33,5.28a4.25,4.25,0,0,1-1.24,3l-.09.09A4.24,4.24,0,0,1,77,63.14h0a4.26,4.26,0,0,1-4.25-4.24c0-1.5,1.35-3.69,2.36-5.34.24-.38.46-.75.7-1.18"/><path id="Path_215" data-name="Path 215" class="cls-1" d="M74.19,75.37c-.34-.54-.64-1-.85-1.4l-3.59-6.21c-.13-.23-1.26-2.12-1.26-2.12s-1.09,1.78-1.28,2.11L63.62,74c-.26.45-.61,1-1,1.64-1.74,2.83-3.9,6.35-3.9,9.54a9.77,9.77,0,0,0,9.76,9.76h0a9.76,9.76,0,0,0,9.75-9.76h0c0-3.18-2.15-6.69-3.91-9.54ZM65.2,77c.34-.55.66-1.07,1-1.65l2.3-4,2.32,4c.34.6.66,1.12,1,1.74,1.54,2.51,3.46,5.64,3.46,8a6.9,6.9,0,0,1-2,4.82h0a6.87,6.87,0,0,1-4.82,2h0a6.81,6.81,0,0,1-6.81-6.82h0c0-2.37,1.92-5.49,3.47-8Z"/></g></g></svg>