<svg xmlns="http://www.w3.org/2000/svg" viewBox="0 0 134.58 136.92"><defs><style>.cls-1{fill:#003057;}</style></defs><g id="Layer_1" data-name="Layer 1"><path class="cls-1" d="M104.08,73A17.89,17.89,0,0,0,93.39,60.33l4.35-6.45-1.2-1a13.45,13.45,0,0,0-8-2.89c-4.21,0-8,2.22-11.3,6.58a34.47,34.47,0,0,0-14.61-3.26c-17.07,0-30.87,11.94-31.77,27.35a4.33,4.33,0,0,1-2.42-1.18c-.49-.65-.53-1.68-.09-3l.18-.57-3.33-1-.18.58c-.79,2.52-.57,4.6.65,6.2a7.63,7.63,0,0,0,5.22,2.57,28,28,0,0,0,10.57,19.69l1.33,12.41H54.81l3.59-5.35a34.31,34.31,0,0,0,12.2-.72l2.13,6.07H84.89l3.42-13.38c7.37-1.37,12.57-5.37,15.08-11.61h6.67V73ZM75.21,112.75l-2.4-6.81-1.59.46a31.27,31.27,0,0,1-13.4.89l-1.09-.16L53,112.75H45.88L44.72,102l-.6-.47a24.55,24.55,0,0,1-9.9-19.31c0-14,12.7-25.44,28.31-25.44h.08a30.83,30.83,0,0,1,14.33,3.55l1.39.74.88-1.31c2.8-4.18,5.93-6.29,9.29-6.29A9.7,9.7,0,0,1,93,54.67l-5.19,7.69,2.42.59a14.22,14.22,0,0,1,10.66,12l.2,1.53h5.49V87.77h-5.65l-.4,1.19c-2,5.91-6.5,9.47-13.45,10.58l-.55.11-1,.23-3.3,12.87Z"/><path class="cls-1" d="M56.59,51.64h0a9,9,0,1,0-9-9A9,9,0,0,0,56.59,51.64Zm-5.52-9a5.54,5.54,0,0,1,5.52-5.52h0a5.52,5.52,0,0,1,3.91,9.41,5.66,5.66,0,0,1-3.91,1.62A5.53,5.53,0,0,1,51.07,42.64Z"/><path class="cls-1" d="M50.36,63.8l-.55.23,1.38,3.2.55-.24A31.46,31.46,0,0,1,64,64.5h.61V61H64A34.36,34.36,0,0,0,50.36,63.8Z"/><path class="cls-1" d="M90.19,80.93a4.61,4.61,0,0,0,4.6-4.61,4.52,4.52,0,0,0-.39-1.85l-.24-.55L91,75.33l.24.55a1.06,1.06,0,0,1,.09.45,1.14,1.14,0,0,1-1.1,1.16,1.16,1.16,0,0,1-.8-.32,1.12,1.12,0,0,1-.35-.83l0-.62h-3.5v.6A4.62,4.62,0,0,0,90.19,80.93Z"/><rect class="cls-1" x="50.2" y="23.49" width="3.48" height="9.77"/><rect class="cls-1" x="57.18" y="20.68" width="3.48" height="9.77"/></g></svg>