<svg xmlns="http://www.w3.org/2000/svg" viewBox="0 0 259.38 59.19"><defs><style>.cls-1{fill:#ffc72c;}.cls-2{fill:#003057;}</style></defs><g id="Layer_1" data-name="Layer 1"><g id="Cambrian_Logo" data-name="Cambrian Logo"><g id="Group_257" data-name="Group 257"><path id="Path_164" data-name="Path 164" class="cls-1" d="M7.42,30.6a17.93,17.93,0,0,1,15.37,8.88,27.74,27.74,0,0,1,2.7-5.56,23.46,23.46,0,0,0-7.3-6,23.46,23.46,0,0,0,7.3-6,27.92,27.92,0,0,1-2.7-5.55A18,18,0,0,1,7.42,25.2Z"/><path id="Path_165" data-name="Path 165" class="cls-1" d="M48.57,25.2A18,18,0,0,1,30.67,7.26H25.28A23.26,23.26,0,0,0,28,18.12a23.52,23.52,0,0,0,9.78,9.78A23.39,23.39,0,0,0,25.28,48.55h5.39a18,18,0,0,1,17.9-18h.16V25.2Z"/></g><path id="Path_166" data-name="Path 166" class="cls-2" d="M70.37,40.33a12,12,0,0,1-12.19-11.8V28A12.07,12.07,0,0,1,70,15.76h.53a12.27,12.27,0,0,1,9.37,3.66l-3.33,3.84a8.73,8.73,0,0,0-6.07-2.68c-4,0-6.89,3.32-6.89,7.4v.07c0,4.07,2.81,7.46,6.89,7.46,2.71,0,4.37-1.08,6.24-2.78l3.33,3.36A12.16,12.16,0,0,1,70.37,40.33Z"/><path id="Path_167" data-name="Path 167" class="cls-2" d="M129.22,39.92V24.41l-6.69,10.15h-.13l-6.62-10v15.4h-5.13V16.16h5.64l6.24,10.05,6.25-10h5.63V39.92Z"/><path id="Path_168" data-name="Path 168" class="cls-2" d="M150.74,39.92h-11.3V16.16h11c4.85,0,7.83,2.41,7.83,6.15v.06a5.52,5.52,0,0,1-3.12,5.13c2.75,1.05,4.45,2.64,4.45,5.83v.07C159.63,37.75,156.1,39.92,150.74,39.92Zm2.37-16.73c0-1.56-1.22-2.44-3.43-2.44h-5.15v5h4.82c2.3,0,3.76-.75,3.76-2.51Zm1.32,9.5c0-1.6-1.18-2.58-3.86-2.58h-6v5.23h6.21c2.3,0,3.7-.82,3.7-2.58Z"/><path id="Path_169" data-name="Path 169" class="cls-2" d="M178.36,39.92l-5.09-7.6h-4.1v7.6h-5.23V16.16H174.8c5.6,0,9,3,9,7.84v.07a7.38,7.38,0,0,1-5.09,7.36l5.8,8.49Zm.1-15.64c0-2.24-1.56-3.4-4.1-3.4h-5.2v6.83h5.3c2.54,0,4-1.36,4-3.36Z"/><path id="Path_170" data-name="Path 170" class="cls-2" d="M188.94,39.92V16.16h5.23V39.92Z"/><path id="Path_171" data-name="Path 171" class="cls-2" d="M242.66,39.92l-11.5-15.1v15.1H226V16.16h4.82L242,30.79V16.16h5.15V39.92Z"/><path id="Path_172" data-name="Path 172" class="cls-2" d="M98,16.17l0-.13H92L82.29,40h6l.86-2.29a3.71,3.71,0,0,1,2-2,4.86,4.86,0,0,1,1.06-.34l6.91-1.32,2.13,5.8,0,.13h6.19ZM91.57,31.32l3.31-8.78,2.79,7.61Z"/><path id="Path_173" data-name="Path 173" class="cls-2" d="M213.48,16.17l0-.13h-6l-9.66,24h6l.86-2.29a3.74,3.74,0,0,1,2-2,5,5,0,0,1,1.06-.34l6.91-1.32,2.13,5.8.05.13H223Zm-6.39,15.15,3.31-8.78,2.79,7.61Z"/></g></g></svg>