<svg xmlns="http://www.w3.org/2000/svg" viewBox="0 0 48.36 39.19"><defs><style>.cls-1{fill:#003057;}</style></defs><g id="Layer_1" data-name="Layer 1"><path class="cls-1" d="M41.87,16.52a1.3,1.3,0,0,0-1.29,1.3v9.54A3.71,3.71,0,0,1,36.9,31H11.46a3.71,3.71,0,0,1-3.68-3.68V17.82a1.3,1.3,0,1,0-2.59,0v9.54a6.28,6.28,0,0,0,6.27,6.26H36.9a6.28,6.28,0,0,0,6.27-6.26V17.82A1.3,1.3,0,0,0,41.87,16.52Z"/><path class="cls-1" d="M23.49,24.92a1,1,0,0,0,.7.28,1,1,0,0,0,.7-.28l6.48-6.14a.74.74,0,0,0,.13-.12,1.32,1.32,0,0,0-.07-1.88,1.41,1.41,0,0,0-.95-.36,1.33,1.33,0,0,0-.91.41l-4.06,3.83V5.73a1.32,1.32,0,0,0-2.64.16V20.67L18.76,16.8a1.32,1.32,0,0,0-1-.35,1.35,1.35,0,0,0-.93.43A1.34,1.34,0,0,0,17,18.76Z"/></g></svg>